<svg xmlns="http://www.w3.org/2000/svg" viewBox="0 0 333.69 170.4"><defs><style>.a{fill:#231f20;fill-rule:evenodd;}</style></defs><title>Jaguar Cars logo - Brandlogos.net</title><path class="a" d="M569.22,495.76c5,5.18,12.8,5.56,12.8,5.56l7.45.5c5.49.38,6.63,3,6.63,3,4.76,8.36,16.66,12.88,16.66,12.88-7.57-4.36-13.06-14-13.06-14-3.6-5.3-12.31-5.3-12.31-5.3h-5.11a39.27,39.27,0,0,1-13.06-2.65Z" transform="translate(-345.16 -426.8)"/><path class="a" d="M624,520.88a30,30,0,0,0-8.75-2.14c4.67,1.64,6.31,3,6.31,3,3.53,2.15,1.14,5.93,1.14,5.93-3,5.29-14.73,2.65-14.73,2.65,12.49,8.33,17.73,2.08,17.73,2.08,3.22-3.85,2.46-5.74,1.58-8.14,0,0,11.36,3.66,23.1-7.19,0,0-12.62,10.1-26.37,3.79Z" transform="translate(-345.16 -426.8)"/><path class="a" d="M409.81,432s-7.38.88-10.92.82c0,0-.76.13-.76.63,0,0,.25.88,1.83.88,0,0,6.56-.19,9.84-2.34Z" transform="translate(-345.16 -426.8)"/><path class="a" d="M486.79,486.07a223.51,223.51,0,0,0,26.39.08,19.55,19.55,0,0,1,6.06.43c7.36,1.1,8.52,4.54,8.52,4.54s13.06,26.89,38.81,26.23l12.16.07c11,0,25.64,10.78,25.64,10.78-3-2.27-9.21-8.2-9.21-8.2-7.83-6.94-20.47-7-20.47-7l-12.79-.07c-24.36-.22-30.73-22.18-30.73-22.18a11.25,11.25,0,0,0-10.41-6.44c-.56,0-1.11,0-1.64,0-24,1.2-31.84-.72-31.84-.72a74.69,74.69,0,0,1-15.8-6.3s1.14-5.43-1.14-10c0,0,8.84,3.53,16.91,1.64,0,0-13-3.28-22.22-9.84,0,0,4.42,12.75.76,17.55,0,0-2.4,8.83-24.36,1.64,0,0-9.09-3.53-16.16-3.53,0,0-5.68.25-5.68,3.16a2.34,2.34,0,0,0,1.39,2s1.64,1.14.63,3.66c0,0,2.27-1.64,1.64-4,0,0-.25-1.26.88-1.52,0,0,3-1.26,11.61,1.9,0,0,13.89,6.31,21.84,6.31,0,0,8.58-.51,11.74-4.29a73.44,73.44,0,0,0,17.46,4.11Z" transform="translate(-345.16 -426.8)"/><path class="a" d="M387.69,464c2.84.09,5.21-2.6,5.21-2.6a24.1,24.1,0,0,1,14.77-7.1c11.12-.76,24.66,10,24.66,10-9.56-12.73-19.64-13.59-19.64-13.59a5.06,5.06,0,0,1-3.5-3c-3.22-5.92-6.86-6.2-6.86-6.2a10.12,10.12,0,0,1,1.61,5.82c0,6.2-9.28,7.1-9.28,7.1-3.69,7.29-6.8,6.86-6.8,6.86a2.15,2.15,0,0,1-2.08-.95c-.38-.57.25-1.07.25-1.07a18.16,18.16,0,0,0,2-1.45c6.31-4.86,6.37-10.35,6.37-10.35-.82-6.38-6.18-6.5-6.18-6.5a4.35,4.35,0,0,0-3.53,1.52,64.26,64.26,0,0,0-3.41,5.55c-1.83,3-3.47,2.59-3.47,2.59a4.79,4.79,0,0,1-3.53-1.77,2.08,2.08,0,0,1-.21-.22,1.94,1.94,0,0,1-.17-2c2.4-3.85,7.45-4.8,7.45-4.8l.52-.15s.45-.11.94-.27l0,0c6.54-2.3,7.09-5.73,7.09-5.73a9,9,0,0,0-4.29-1.2c-4,.25-5.3,4.17-5.3,4.17l-.95-1s-.43-.52.24-1.14c0,0,3-3.68,13.9-5.32A78.37,78.37,0,0,1,414,431s-7.2,7.51-15.84,4.36c0,0-.13,2.78,7.45,4.16,0,0,8,.82,18,10.41,0,0-2.65-5.81-11.23-12.37a.64.64,0,0,1-.06-1.07s3.72-4.29,8.71-4.23c0,0,25.81,1.33,40.33,16.47a21.61,21.61,0,0,0-2.71-6.19s-.44-.44-.19-.76c0,0,.19-.63,2.71-.13,0,0,9.21,1.52,30.61,9.34l23.16,8.27s8.08,3,12.56,5c0,0-9-.32-13.82,2.15,0,0-.2.12-.1.29,0,0,0,.17.45.09A24.81,24.81,0,0,1,528.91,468a62.17,62.17,0,0,1,13.42,7.79s4,3.5,6.58,6.34a79.86,79.86,0,0,0,12.87,9.56s-5.58-5.3-10.22-10.22c0,0-6.63-8-9.66-10.6,0,0,22.85,10.72,43.45,22.34,3.69,2.08,15.62,9,15.62,9a169.23,169.23,0,0,0,22.89,11.76,22,22,0,0,0,18.93-.25l.41-.18c5.55-2.88,6.82-2,6.82-2a3.21,3.21,0,0,1,2,3.88c2.4-2.46,2.18-3.8,2.18-3.8-.08-4.22-4.7-3.87-4.7-3.87-1.2.14-5.17,2.35-7.7,3.82L641,512c-6.7,3.47-16,.25-16,.25a166.61,166.61,0,0,1-23.18-11.63s-21.2-12.59-39.47-21.77c0,0-22.81-11.83-53.39-25.09,0,0-58.31-27-101.29-27,0,0-22.28-.29-29.82,8.28a4.22,4.22,0,0,0-.66,2.46.64.64,0,0,1-.19.62,32.8,32.8,0,0,0-6,5.3,2.94,2.94,0,0,0-.28,3.69s.95,1.51,1.8,2.65h0c.39.53,2.65,3.35,6,3.09a3.21,3.21,0,0,1,1.42.24,6.69,6.69,0,0,0,1.89,1.14h1.56s.33,0,.38-.33a8.58,8.58,0,0,0-.28-1.42,3.27,3.27,0,0,1-.52-2.6,9.3,9.3,0,0,1,1.85-4.07,2.75,2.75,0,0,1,3.5-.14s3.6,3.12,1.75,6.86c0,0-1.52,2.84-3.17,2.84a1.81,1.81,0,0,1-1.66-.57l-1.09-.14s-.33,0-.33.28l0,.8a1.17,1.17,0,0,0,.24.71,1,1,0,0,1,0,1.18,2.18,2.18,0,0,0-.52,2.32s.95,4,4.17,4Zm-1.23-27.37a4.92,4.92,0,0,1-4.42,2.15s.69-3,4.42-2.15ZM378,439.44c1.09-.43,1.23.19,1.23.19,0,.52-.57.71-.57.71a26.94,26.94,0,0,0-5.44,4.59c-.43.47-.71.24-.71.24-.52-.47,0-1.09,0-1.09a33,33,0,0,1,5.49-4.64Z" transform="translate(-345.16 -426.8)"/><path class="a" d="M436.38,451.54c-6.06,8.58-1.26,14.64-1.26,14.64-16.28-.51-21,4-21,4-8,6.18-5,13.38-5,13.38,4.54,7.2,9.85,2.15,9.85,2.15-7.57,1.52-7.45-5.18-7.45-5.18,1.64-11.61,16.79-11.11,16.79-11.11,13,0,33.2,3.66,33.2,3.66-15.27-3.53-19.94-7.32-19.94-7.32-6.44-3.91-5.17-14.26-5.17-14.26Z" transform="translate(-345.16 -426.8)"/><path class="a" d="M556.63,576.08a35.45,35.45,0,0,0,.75-8.62V545.22h-4.91v23.9a30.07,30.07,0,0,1-.56,6.28c-1.36,6.62-6.37,9.06-13.9,9.06-3.56,0-7.79-.83-10.22-3.66-2.15-2.42-2.6-5.71-2.6-11.21V545.22h-8V570c0,5.06.53,9.79,4,13.22,3.23,3.23,9.49,4.66,16.62,4.66,10.5,0,16.78-3.5,18.78-11.82Z" transform="translate(-345.16 -426.8)"/><path class="a" d="M612.43,587h9.5l-20.38-41.75h-5L575.75,587h5.06l5.64-11.72h20.71L612.43,587Zm-15.37-33.83,8.79,19.27h-18l9.24-19.27Z" transform="translate(-345.16 -426.8)"/><path class="a" d="M422.35,587h9.5l-20.39-41.75h-5L385.67,587h5.06l5.64-11.72h20.71L422.35,587ZM407,553.14l8.8,19.27h-18L407,553.14Z" transform="translate(-345.16 -426.8)"/><path class="a" d="M475.32,587.9c5.14,0,11.78-1,16.46-3.1v-17h-8V583a28.09,28.09,0,0,1-9,1.47c-10.62,0-17.52-7.28-17.52-17.9,0-11.74,7.82-18.83,19.16-18.83a24.16,24.16,0,0,1,14,4.88v-5a33.65,33.65,0,0,0-14.53-3.25c-7.85,0-16.16,2.37-21.64,8.31a22,22,0,0,0-5.8,14.38c0,16,13.1,20.78,26.89,20.78Z" transform="translate(-345.16 -426.8)"/><path class="a" d="M669.65,587h9.2l-12.27-17c4.33-1.54,9.2-5.45,9.2-11.9a11.83,11.83,0,0,0-2.76-8.24c-3.41-3.77-9.54-4.66-15.67-4.66H642.24V587h8v-16h8.37l11.06,16Zm-13.56-38.85c6.4,0,11.53,2.67,11.53,9.73a9.57,9.57,0,0,1-3.38,7.83c-2,1.62-4.58,2.42-8.88,2.42h-5.13v-20Z" transform="translate(-345.16 -426.8)"/><path class="a" d="M352,595.55c7.26-3.56,10.23-11,10.23-18.73v-31.6h-8v26.26a88.82,88.82,0,0,1-.46,11.08c-.79,6.66-3.1,10.69-8.57,14.64a16.1,16.1,0,0,0,6.8-1.65Z" transform="translate(-345.16 -426.8)"/></svg>