<?xml version="1.0" encoding="UTF-8"?><svg id="uuid-ef45503c-fc01-4a1e-9f98-78711ff56d11" xmlns="http://www.w3.org/2000/svg" viewBox="0 0 56.93 56.81">
<title>MG Cars logo - Brandlogos.net</title><path d="M54.34,38.29c-.04.56-.26,1.09-.63,1.52-.99,1.15-3.27,3.74-6.71,7.18-3.33,3.33-6.01,5.69-7.19,6.71-.43.37-.96.59-1.52.63-1.52.12-4.96.33-9.82.33s-8.31-.22-9.82-.33c-.56-.04-1.09-.26-1.52-.63-1.18-1.02-3.86-3.39-7.19-6.71-3.44-3.44-5.72-6.03-6.71-7.18-.37-.43-.59-.96-.63-1.52-.12-1.56-.34-5.13-.34-9.83s.22-8.32.33-9.83c.04-.56.26-1.08.63-1.51.99-1.15,3.27-3.74,6.72-7.19,3.33-3.33,6.01-5.69,7.19-6.71.43-.37.96-.59,1.52-.63,1.52-.12,4.96-.33,9.82-.33s8.31.21,9.82.33c.56.04,1.09.26,1.52.63,1.18,1.02,3.86,3.38,7.19,6.71,3.33,3.33,5.69,6.01,6.71,7.19.37.43.59.96.63,1.52.12,1.52.33,4.96.33,9.82s-.22,8.27-.34,9.83M55.83,16.08c-1.14-1.32-3.68-4.19-7.23-7.74-3.55-3.55-6.43-6.1-7.74-7.23-.51-.43-1.13-.7-1.8-.75-1.69-.13-5.39-.36-10.59-.36s-8.9.23-10.59.36c-.66.05-1.29.31-1.8.75-1.32,1.14-4.19,3.68-7.74,7.23-3.68,3.68-6.14,6.46-7.24,7.74-.43.5-.69,1.13-.74,1.79-.13,1.68-.36,5.39-.36,10.6s.23,8.86.36,10.59c.05.66.31,1.29.74,1.8,1.1,1.28,3.56,4.07,7.24,7.74,3.55,3.55,6.43,6.1,7.74,7.23.5.43,1.13.58,1.8.62,1.69.13,5.39.36,10.59.36s8.9-.23,10.59-.36c.66-.05,1.29-.19,1.8-.62,1.32-1.14,4.19-3.68,7.74-7.23,3.67-3.67,6.13-6.45,7.24-7.74.43-.5.69-1.13.74-1.8.13-1.73.36-5.57.36-10.59s-.23-8.9-.36-10.59c-.05-.66-.31-1.29-.75-1.8" style="fill:#231f20;"/><path d="M43.36,28.42c0,.13.01,3.94.01,3.96.09,0,3.68,0,3.81,0,0,.07-.1,3.25-.18,3.78-.28.4-.74.81-1.25,1.38-.55.62-1.34,1.45-2.97,3.12-2.04,2.09-5.21,5.06-6.62,6.31.02-.19-.03-36.68-.02-37.05.37.31,1.26,1.12,1.51,1.36,1.72,1.62,3.52,3.27,4.99,4.81,2.14,2.24,4.28,4.57,4.38,4.73.03.17.12,2.11.11,2.27.15.02,3.89,0,4.03,0h0c-.04-1.9-.19-3.57-.24-3.93-.08-.15-.29-.38-.42-.53-1.63-1.85-3.28-3.63-5.51-5.85-4.34-4.32-6.68-6.37-7.25-6.78-.43-.05-1.22-.11-3.36-.21-1.71-.08-3.87-.12-4.05-.11,0,.38-.04,28.92-.01,45.16,0,.3.01.39.01.39,0,0,5.01.05,7.43-.29,1.66-1.39,4.8-4.36,7.1-6.65,2.45-2.48,4.55-4.73,5.09-5.36.22-.26.72-.8.99-1.17.04-.31.06-.58.1-1.16.18-2.87.21-8.01.21-8.18-.22-.01-7.72,0-7.89,0" style="fill:#231f20;"/><path d="M26.63,6.13s-.01-.17-.02-.44c-.15,0-1.35-.03-2.86.04-1.47.07-2.87.12-3.01.13-.05.13-1.89,3.88-3.78,8.56-2.46,6.11-3.48,9.15-3.48,9.15,0,0-.09-.12-.85-1.42-1.27-2.16-2.61-4.54-3.38-5.66-.13-.19-.37-.53-.37-.53,0,0-.04.02-.25.21-.44.4-2.18,2.38-2.54,2.81-.18.21-.13.19-.14.25-.03.4-.24,3.58-.28,8.47-.04,5.03.07,7.68.31,10.05.55.69.97,1.2,2.2,2.5.69.73,1.98,2.07,1.99,2.07,0,0-.16-2.25-.18-2.64-.15-3.13-.28-6.02-.3-9.63,0-.38,0-4.34,0-4.34l1.88,3.28,2.67,4.73.09.07c.95-2.51,2.14-5.92,3.4-9.21.98-2.58,2.02-5.01,2.92-7.33.06-.06.12-.27.12-.27,0,0,.03,4.54,0,5.36,0,13.06,0,21.59,0,28.7h0c.6.04,3.07.18,5.33.19.2,0,.45,0,.55,0,0-.21,0-.31,0-.51,0-16.65,0-44.59,0-44.59" style="fill:#231f20;"/></svg>